<svg width="28" height="28" viewBox="0 0 28 28" fill="none" xmlns="http://www.w3.org/2000/svg">
<g clip-path="url(#clip0_1_182)">
<path d="M4.11206 24.3456H20.4899L19.7077 21.813L21.5788 23.4187L23.2936 24.9555L26.4178 27.5663V2.84278C26.3397 1.30595 25.0165 0 23.3763 0L4.1178 0.00344579C2.47876 0.00344579 1.14868 1.3117 1.14868 2.84852V21.5017C1.14868 23.1224 2.47646 24.3456 4.11206 24.3456ZM16.2275 6.52747L16.1896 6.54126L16.2033 6.52747H16.2275ZM7.46252 7.98504C9.56789 6.45281 11.5194 6.52632 11.5194 6.52632L11.6767 6.68138C9.10041 7.29588 7.93229 8.44678 7.93229 8.44678C7.93229 8.44678 8.24471 8.29401 8.79029 8.06085C12.2602 6.69632 16.0494 6.79509 19.5572 8.52258C19.5572 8.52258 18.3868 7.44635 15.969 6.75719L16.1827 6.547C16.5169 6.54815 18.2857 6.61017 20.1786 7.99423C20.1786 7.99423 22.2966 11.6123 22.2966 16.0574C22.2266 15.9724 20.9826 17.9709 17.7815 18.0399C17.7815 18.0399 17.2394 17.4265 16.8534 16.8913C18.7257 16.3537 19.4263 15.2786 19.4263 15.2786C18.8118 15.6657 18.2513 15.8954 17.7964 16.1251C17.0969 16.433 16.3963 16.5846 15.6968 16.7396C12.3843 17.2772 10.5247 16.3778 8.76732 15.6646L8.1666 15.359C8.1666 15.359 8.8661 16.4341 10.6637 16.9717C10.1916 17.5103 9.7241 18.1226 9.7241 18.1226C6.52411 18.0467 5.35714 16.0482 5.35714 16.0482C5.35714 11.5962 7.46252 7.98504 7.46252 7.98504Z" fill="#EED5A5"/>
<path d="M16.4343 14.6682C17.251 14.6682 17.916 13.979 17.916 13.1291C17.916 12.2849 17.2544 11.5957 16.4343 11.5957V11.5991C15.6211 11.5991 14.9549 12.286 14.9526 13.136C14.9526 13.979 15.6177 14.6682 16.4343 14.6682Z" fill="#EED5A5"/>
<path d="M11.1301 14.6682C11.9468 14.6682 12.6118 13.979 12.6118 13.1291C12.6118 12.2849 11.9514 11.5957 11.1347 11.5957L11.1301 11.5991C10.3135 11.5991 9.64844 12.286 9.64844 13.136C9.64844 13.979 10.3135 14.6682 11.1301 14.6682Z" fill="#EED5A5"/>
</g>
<defs>
<clipPath id="clip0_1_182">
<rect width="27.5663" height="27.5663" fill="white"/>
</clipPath>
</defs>
</svg>
