<svg width="123" height="51" viewBox="0 0 123 51" fill="none" xmlns="http://www.w3.org/2000/svg">
<path d="M93.2123 8.37921V12.8642L97.224 11.5659V8.37921H93.2123ZM94.8642 16.8771L93.2123 17.2311V22.3062H88.7288V4.48438H99.1118L101.354 6.37278V14.7526L98.9938 15.4607L102.887 22.3062H97.9319L94.8642 16.8771ZM79.6437 10.8578L77.8738 15.6968L80.9416 14.7526L79.6437 10.8578ZM82.2394 18.4114L76.34 20.2998L75.6321 22.3062H71.1485L77.5199 4.48438H81.7674L88.1388 22.3062H83.6553L82.2394 18.4114ZM63.7152 15.1067V18.2934H70.3226V22.3062H59.2316V6.37278L56.7539 4.48438H70.3226V8.49724H63.7152V11.2118H68.9067V15.2247H63.7152V15.1067ZM108.669 12.7462V22.3062H104.185V4.48438H108.197L114.568 14.0444V4.48438H122.002L119.052 6.49081V22.3062H115.04L108.669 12.7462Z" fill="#EED5A5"/>
<path fill-rule="evenodd" clip-rule="evenodd" d="M109.022 30.096H106.544V35.6432H109.022V34.463H111.499V36.8235L110.438 37.8857H105.246L104.184 36.8235V28.9157L105.246 27.8535H110.32L111.381 28.9157V31.2763H108.904V30.096H109.022ZM96.8689 32.4565V37.6496H94.3911V27.8535H96.5148L100.054 33.0466V27.8535H102.532V37.6496H100.409L96.8689 32.4565ZM81.6483 37.6496V27.8535H84.126V37.6496H81.6483ZM77.7547 35.5252H80.8224V37.7677H75.2769V27.9715H77.7547V35.5252ZM71.3833 35.5252H74.451V37.7677H68.9055V27.9715H71.3833V35.5252ZM63.8321 31.5123L62.8881 34.1089L64.54 33.6368L63.8321 31.5123ZM65.2479 35.5252L62.0622 36.5874L61.7082 37.6496H59.2305L62.6522 27.8535H65.0119L68.4336 37.6496H65.9558L65.2479 35.5252ZM89.1996 31.5123L88.2556 34.1089L89.9075 33.6368L89.1996 31.5123ZM90.7334 35.5252L87.5477 36.5874L87.1938 37.6496H84.716L88.1377 27.8535H90.4974L93.9191 37.6496H91.4413L90.7334 35.5252ZM115.393 33.7548V35.5252H119.051V37.7677H112.915V27.9715H119.051V30.214H115.393V31.6303H118.225V33.8728H115.393V33.7548Z" fill="#EFEDE5"/>
<path d="M21.12 19.8283L20.766 20.4184L21.12 19.8283ZM44.5997 33.7553V21.3626L43.1839 19.7103L45.5436 17.3498L44.5997 16.0515V14.7532V14.6352V14.5171V14.3991V14.2811V14.1631V14.045V4.13089V4.01287L48.8473 0H44.5997H41.768L28.6712 18.1759L34.0987 20.4184L29.9691 22.7789L24.7776 19.9463L23.8337 21.5987L25.2496 22.3068L26.5474 26.5557L33.0368 29.0343L37.8744 30.9227L40.8241 31.9849H40.9421L41.06 32.103H41.1781L41.65 32.221L44.5997 33.7553ZM0 0.35408L4.24763 4.48497V10.5043L5.30949 11.6845L3.77565 14.5171L4.83758 15.6974L7.5513 16.6416L3.4217 19.0021L4.48355 20.3004V20.4184V20.5364V20.8905V21.1266V21.2446V21.3626V21.4807V21.5987V21.7167V21.8347V21.9527V22.1888V22.3068V22.4249V22.5429V22.6609V22.7789V22.897V23.015V23.4871V23.6051V23.7231V23.8412V23.9592V24.0772V24.1952V24.3133V24.4313V24.6673V29.6244L5.19153 30.9227L3.65769 33.5193L4.36559 34.8175V35.8798V37.178V38.2403V40.6008L7.07932 41.8991H7.19735H7.31531H7.43327L10.265 42.8433L14.1586 42.0171L12.1528 44.1415L12.9787 44.4956L13.0968 44.6137H13.2147L13.4507 44.7317L13.5687 44.8497L13.6867 44.9677L24.5416 50.1609L37.0485 44.2596L23.1258 32.103L19.5862 29.8605L18.6422 31.3948L19.2321 33.2832L14.8666 34.5815L13.5687 30.2145L15.4565 29.6244L16.5184 27.854L15.2206 27.0278L18.8782 18.7661L21.12 19.8283L21.8279 18.648L16.7544 15.5794V10.8584L21.5919 14.6352L26.9014 0.35408H0Z" fill="#EED5A5"/>
<path d="M34.0987 20.7739L29.9691 23.1344L24.7776 20.3018L24.0697 21.482C26.0755 22.5443 27.6094 24.1966 29.6152 25.3769L34.0987 22.0722V20.7739ZM47.4314 1.65375L48.8473 0.355469H44.5997H41.768L28.6712 18.5314L29.3792 18.8855L43.0658 2.3619L47.4314 1.65375ZM21.2379 19.5936L21.7099 18.6494L16.6364 15.5808V17.5872L21.2379 19.5936ZM15.9285 28.9176L16.5184 27.9734L15.2206 27.1473V28.4455L15.9285 28.9176ZM18.7602 33.5206L14.7486 34.7009L13.8047 31.6322L13.4507 31.7503L14.7486 36.1172L19.1142 34.8189L18.7602 33.5206ZM34.4527 45.5592L36.8125 44.379L22.8898 32.2224L19.3502 29.9799L18.4063 31.5142L18.6422 32.3404L19.2321 31.1601L22.7718 33.4026L34.4527 45.5592ZM0 0.355469L1.41588 1.65375H25.3675L24.1877 7.437L26.7834 0.355469H0Z" fill="#EED5A5"/>
<path d="M93.2116 12.865L97.2232 11.5667V12.2749L91.6777 14.6354L93.2116 12.865ZM98.993 15.3436L102.887 22.189H102.179L97.2232 14.7534L98.993 15.3436ZM90.1439 5.78349L88.728 4.48521H99.111L101.353 6.37362V10.5045L100.527 6.96375L99.111 5.78349H90.1439ZM80.9408 14.7534L81.1767 15.5796L75.3953 17.9401L77.8731 15.8157L80.9408 14.7534ZM74.0974 13.9273L77.5191 4.36719H81.7667L85.8963 16.0517L81.0588 5.66547H78.109L74.0974 13.9273ZM63.7144 11.0946H68.9059V13.4551L68.198 11.9208L61.9446 12.5109L63.7144 11.0946ZM58.523 5.78349L56.8711 4.48521H70.4398V6.7277L69.4959 5.19336L58.523 5.78349ZM63.7144 18.2942H70.3218V20.3006L69.7319 19.0023L61.5906 19.5925L63.7144 18.2942ZM114.568 5.78349V4.48521H122.001L120.113 5.78349H114.568ZM104.184 5.78349V4.48521H108.196L114.568 14.0453L116.337 18.7663L107.488 5.78349H104.184Z" fill="#EED5A5"/>
</svg>
