<svg width="28" height="28" viewBox="0 0 28 28" fill="none" xmlns="http://www.w3.org/2000/svg">
<g clip-path="url(#clip0_1_184)">
<path d="M26.9416 5.10271C26.5086 5.29478 26.0633 5.45689 25.6084 5.5885C26.147 4.97937 26.5577 4.26265 26.8083 3.47834C26.8645 3.30254 26.8063 3.11011 26.6618 2.99513C26.5175 2.88006 26.317 2.86628 26.158 2.96045C25.1919 3.53347 24.1495 3.94528 23.0566 4.18608C21.9556 3.11029 20.4603 2.49805 18.9144 2.49805C15.6514 2.49805 12.9966 5.15268 12.9966 8.41564C12.9966 8.67263 13.0129 8.9282 13.0451 9.18021C8.99597 8.82469 5.23157 6.83449 2.64656 3.66357C2.55444 3.55055 2.41252 3.48963 2.26721 3.50128C2.12182 3.51267 1.9912 3.59465 1.91774 3.72066C1.39345 4.6203 1.11628 5.64923 1.11628 6.69613C1.11628 8.12202 1.62536 9.4749 2.52465 10.532C2.25121 10.4373 1.98586 10.319 1.73261 10.1784C1.59664 10.1027 1.43071 10.1039 1.29564 10.1813C1.16047 10.2588 1.07573 10.4012 1.07217 10.5569C1.07155 10.5832 1.07155 10.6094 1.07155 10.636C1.07155 12.7644 2.21706 14.6806 3.96841 15.725C3.81795 15.71 3.66758 15.6882 3.51819 15.6596C3.36418 15.6302 3.2058 15.6842 3.10194 15.8016C2.9979 15.919 2.96349 16.0826 3.01142 16.232C3.65967 18.2559 5.32868 19.7446 7.34635 20.1985C5.6729 21.2466 3.75917 21.7956 1.75021 21.7956C1.33103 21.7956 0.90944 21.771 0.496835 21.7222C0.291866 21.6978 0.0958785 21.8188 0.0260735 22.0138C-0.0437315 22.2088 0.0302529 22.4262 0.204632 22.538C2.78546 24.1927 5.76965 25.0674 8.8344 25.0674C14.8593 25.0674 18.6284 22.2263 20.7292 19.8429C23.3489 16.8709 24.8513 12.9372 24.8513 9.05047C24.8513 8.88809 24.8488 8.72412 24.8438 8.56068C25.8774 7.78198 26.7673 6.83956 27.4914 5.75638C27.6014 5.59188 27.5894 5.37446 27.462 5.22302C27.3348 5.0715 27.1227 5.0225 26.9416 5.10271Z" fill="#EED5A5"/>
</g>
<defs>
<clipPath id="clip0_1_184">
<rect width="27.5663" height="27.5663" fill="white"/>
</clipPath>
</defs>
</svg>
